<svg width="209" height="209" viewBox="0 0 209 209" fill="none" xmlns="http://www.w3.org/2000/svg">
<path d="M104.493 0C46.778 0 0 46.7782 0 104.493C0 162.207 46.778 208.985 104.493 208.985C162.207 208.985 208.985 162.207 208.985 104.493C208.985 46.7782 162.207 0 104.493 0ZM54.398 114.229H42.192V55.1744H54.398V114.229ZM175.683 127.917C175.683 147.955 159.385 164.324 139.277 164.324C119.239 164.324 102.87 148.025 102.87 127.917C102.87 114.582 92.004 103.716 78.669 103.716V127.917H66.463V55.1038H78.669V79.3044C92.004 79.3044 102.87 68.4388 102.87 55.1038H115.076C115.076 75.1415 98.778 91.5104 78.669 91.5104C98.707 91.5104 115.076 107.809 115.076 127.917C115.076 141.252 125.942 152.118 139.277 152.118C152.612 152.118 163.477 141.252 163.477 127.917C163.477 114.582 152.612 103.716 139.277 103.716V91.5104C159.314 91.5104 175.683 107.809 175.683 127.917Z" fill="black"/>
</svg>
